<svg width="160" height="58" viewBox="0 0 160 58" fill="none" xmlns="http://www.w3.org/2000/svg">
<g id="&#208;&#155;&#208;&#190;&#208;&#179;&#208;&#190;&#209;&#130;&#208;&#184;&#208;&#191;" clip-path="url(#clip0_27_39)">
<g id="Layer_x0020_1">
<path id="Vector" d="M39.8844 32.4256L36.6375 38.1332H25.0438L22.9562 41.7862L25.0438 45.4402H40.8117L57.7391 16.4434L55.6515 12.7903H51.4772L44.0569 25.5755H21.7959L10.8975 7.08179H149.333L143.767 16.2149L145.855 19.8679H150.029L160 3.65723L157.913 0.00418091H2.54987L0.463192 3.42874L17.6226 32.4246H39.8835L39.8844 32.4256ZM131.711 25.3479L137.045 16.2149L134.957 12.5618H105.044L102.957 15.9864L105.044 19.6394H126.61L123.363 25.1195H112.696L110.61 28.7725L112.696 32.4256H138.435L149.335 50.9193H10.6673L16.233 41.7862L14.1454 38.1332H9.97111L2.0876 50.9184L0 54.3429L2.0876 57.996H6.26188H157.451L159.538 54.3429L142.378 25.347H131.712L131.711 25.3479ZM97.3914 32.4256L100.638 38.1332H60.5219L63.7689 32.4256H97.3914ZM71.4213 19.8679H85.7978L82.5517 25.3479H68.1743L71.4213 19.8679ZM94.1454 12.7903H67.247L65.1594 16.2149L52.1743 38.1332L50.0867 41.7862L52.1743 45.4402H108.986L111.074 42.0156L108.986 38.3616L101.566 25.5764H90.8994L96.233 16.4434L94.1463 12.7903H94.1454Z" fill="#FF5500"/>
</g>
</g>
<defs>
<clipPath id="clip0_27_39">
<rect width="160" height="58" fill="white"/>
</clipPath>
</defs>
</svg>
